<svg xmlns="http://www.w3.org/2000/svg" width="500" height="57.99" viewBox="0 0 500 57.99"><path d="M395,487.37v25.52h6.32A11.72,11.72,0,0,0,410,509a13,13,0,0,0,3.48-9,12.43,12.43,0,0,0-3.48-9,11.88,11.88,0,0,0-8.76-3.74Zm6.32-8a20.75,20.75,0,1,1,0,41.5H387.28a1.12,1.12,0,0,1-1-1V480.42a1.12,1.12,0,0,1,1-1Zm51.41,34.41a13.45,13.45,0,0,0,12.37-8.38,14.14,14.14,0,0,0-2.84-14.94,13,13,0,0,0-14.56-3,13.56,13.56,0,0,0-8.24,12.63,13.42,13.42,0,0,0,13.27,13.66m0-35.31a21.65,21.65,0,1,1-21.91,21.65,21.7,21.7,0,0,1,21.91-21.65m52.44,35.31a13.67,13.67,0,1,0-13.27-13.66,14.1,14.1,0,0,0,3.86,9.66,12.85,12.85,0,0,0,9.41,4m0-35.31a21.65,21.65,0,1,1-22,21.65,21.7,21.7,0,0,1,22-21.65m51,8.89h-9v11h9a6,6,0,0,0,3.86-1.42,5.59,5.59,0,0,0,.13-7.86,5.17,5.17,0,0,0-4-1.68Zm-17.66-6.95a1.12,1.12,0,0,1,1-1h16.88A13.49,13.49,0,0,1,570.38,493a13.32,13.32,0,0,1-7.22,12.12l7.74,14.17a1,1,0,0,1,0,1.16.86.86,0,0,1-.91.51h-6.83a1.08,1.08,0,0,1-.9-.51l-7.47-14.05h-7.47v13.4a1,1,0,0,1-1,1h-6.57a1.12,1.12,0,0,1-1-1Zm54.51,7.21v25.51h6.31a12.08,12.08,0,0,0,8.63-3.73,13.43,13.43,0,0,0,0-18,11.86,11.86,0,0,0-8.76-3.74Zm6.31-8a20.75,20.75,0,1,1,0,41.49h-14a1.1,1.1,0,0,1-1-1V480.67a1.11,1.11,0,0,1,1-1Zm47.29,10.05-4.9,13.66h9.8Zm-7.73,21.39-3.22,9.15a1.12,1.12,0,0,1-1,.77h-7a1,1,0,0,1-.9-.38,1,1,0,0,1-.13-1l15.07-39.43a1,1,0,0,1,1-.65h7.86a1,1,0,0,1,1,.65l15.07,39.43a1,1,0,0,1-.13,1c-.26.26-.51.51-.9.38h-7a1,1,0,0,1-1-.77l-3.22-9.15Zm35.82-20.49c0-6.57,5.54-12.11,14.17-12.11a17.93,17.93,0,0,1,12.63,4.9,1,1,0,0,1,0,1.42l-3.86,4a1,1,0,0,1-1.42,0,10.06,10.06,0,0,0-6.7-2.7c-3.48,0-6.06,2.06-6.06,4.5,0,7.74,20.49,3.23,20.49,18.17,0,7.48-5.54,13.27-15.33,13.27A20.25,20.25,0,0,1,674,516a1,1,0,0,1,0-1.42l3.73-3.86a1,1,0,0,1,1.42,0,13.27,13.27,0,0,0,8.89,3.73c4.38,0,7.22-2.32,7.22-5.41.13-8-20.49-3.48-20.49-18.43m66.49-10.17V496h-17.4V480.42a1,1,0,0,0-1-1h-6.44a1.11,1.11,0,0,0-1,1v39.42a1.11,1.11,0,0,0,1,1h6.57a1.11,1.11,0,0,0,1-1V504h17.4v15.84a1.11,1.11,0,0,0,1,1H749a1.12,1.12,0,0,0,1-1V480.42a1,1,0,0,0-1-1H742.4A1.14,1.14,0,0,0,741.24,480.42Zm-392,4.25A25.89,25.89,0,0,0,326.08,471H252.5a2.54,2.54,0,0,0-2.32,1.55,2.57,2.57,0,0,0,.52,2.7l16,15.85a7.57,7.57,0,0,0,5.41,2.19H324a6.55,6.55,0,0,1,6.7,6.57,6.79,6.79,0,0,1-6.57,6.7H288.32a2.5,2.5,0,0,0-1.8,4.25l16,16a7.57,7.57,0,0,0,5.41,2.19h16.23c21-.13,36.86-22.29,25.13-44.32" transform="translate(-250 -471.01)"/></svg>