<?xml version="1.0" encoding="UTF-8" standalone="no"?>
<svg
   xmlns:dc="http://purl.org/dc/elements/1.1/"
   xmlns:cc="http://creativecommons.org/ns#"
   xmlns:rdf="http://www.w3.org/1999/02/22-rdf-syntax-ns#"
   xmlns:svg="http://www.w3.org/2000/svg"
   xmlns="http://www.w3.org/2000/svg"
   xmlns:sodipodi="http://sodipodi.sourceforge.net/DTD/sodipodi-0.dtd"
   xmlns:inkscape="http://www.inkscape.org/namespaces/inkscape"
   width="700"
   height="700"
   viewBox="0 0 700 700"
   version="1.1"
   id="svg20"
   sodipodi:docname="grubhub-logo.svg"
   style="fill:none"
   inkscape:version="0.92.4 (5da689c313, 2019-01-14)"
   inkscape:export-filename="C:\Users\suitedoalex\sites\grubhub-logo-0.png"
   inkscape:export-xdpi="561.73712"
   inkscape:export-ydpi="561.73712">
  <metadata
     id="metadata26">
    <rdf:RDF>
      <cc:Work
         rdf:about="">
        <dc:format>image/svg+xml</dc:format>
        <dc:type
           rdf:resource="http://purl.org/dc/dcmitype/StillImage" />
        <dc:title></dc:title>
      </cc:Work>
    </rdf:RDF>
  </metadata>
  <defs
     id="defs24" />
  <sodipodi:namedview
     pagecolor="#ffffff"
     bordercolor="#666666"
     borderopacity="1"
     objecttolerance="10"
     gridtolerance="10"
     guidetolerance="10"
     inkscape:pageopacity="0"
     inkscape:pageshadow="2"
     inkscape:window-width="1600"
     inkscape:window-height="837"
     id="namedview22"
     showgrid="false"
     inkscape:zoom="0.35379464"
     inkscape:cx="409.34422"
     inkscape:cy="137.15257"
     inkscape:window-x="-8"
     inkscape:window-y="-8"
     inkscape:window-maximized="1"
     inkscape:current-layer="svg20" />
  <path
     d="m 688.67414,822.67719 c 0.39036,0 0.64294,-0.25274 0.64294,-0.67402 0,-0.41118 -0.25258,-0.64249 -0.64294,-0.64249 h -0.6307 v 1.31651 z m -1.37928,-1.88521 h 1.52777 c 0.74704,0 1.25221,0.47425 1.25221,1.21119 0,0.6111 -0.39954,0.96916 -0.72561,1.0529 v 0.0216 c 0,0 0.0413,0.0422 0.13624,0.22059 l 0.75929,1.46485 h -0.82205 l -0.73786,-1.53787 h -0.64141 v 1.53787 h -0.74858 z m 1.28436,5.1301 c 1.69769,0 3.00348,-1.36963 3.00348,-3.1287 0,-1.75923 -1.30579,-3.12886 -3.00348,-3.12886 -1.67319,0 -2.9698,1.36963 -2.9698,3.12886 0,1.75907 1.29661,3.1287 2.9698,3.1287 z m 0,-6.97383 c 2.09723,0 3.77196,1.70702 3.77196,3.84513 0,2.13795 -1.67473,3.84497 -3.77196,3.84497 -2.07426,0 -3.73827,-1.70702 -3.73827,-3.84497 0,-2.13811 1.66401,-3.84513 3.73827,-3.84513 z"
     id="path2"
     inkscape:connector-curvature="0"
     style="fill:#ff8000;stroke-width:1.53082514"
     inkscape:export-filename="C:\Users\suitedoalex\sites\grubhub-logo-4.png"
     inkscape:export-xdpi="98.144829"
     inkscape:export-ydpi="98.144829" />
  <path
     d="m 669.82509,885.73126 v 0.0605 c 0.12093,2.71676 -0.78532,5.37549 -2.41718,7.54911 l 0.0612,0.12109 0.0597,-0.0605 c -1.50174,1.78571 -3.77655,2.73084 -6.10187,2.53765 h -9.30283 v -19.93486 h 9.36406 c 2.32379,-0.19319 4.5986,0.7527 6.10187,2.53765 l -0.0612,-0.0605 c 1.61502,2.06003 2.43095,4.63503 2.29624,7.24983 z M 652.12415,839.0933 h 8.21594 c 2.05437,-0.14084 4.06587,0.63253 5.49567,2.11407 l 0.12093,0.12109 c 1.42826,1.92914 2.11254,4.30514 1.93496,6.6969 0.22657,2.52096 -0.55416,5.09764 -2.05589,7.19671 v -0.0605 c -1.35325,1.57094 -3.36476,2.41917 -5.43596,2.29563 h -8.27565 z m 36.91126,46.51687 v 0.12109 c 0,-7.73403 -3.50406,-15.10495 -9.54469,-19.93731 l 0.12093,0.0605 0.11787,-0.12109 c 4.98284,-4.78505 7.79803,-11.39577 7.79497,-18.30331 v 0.36066 c 0.25105,-7.21585 -2.25491,-14.25688 -7.00812,-19.69284 l 0.12093,0.17911 c -5.12826,-5.72529 -12.49,-8.94354 -20.17627,-8.81832 h -26.21844 c -0.89707,-0.003 -1.62727,0.72117 -1.63186,1.61823 0,0.005 0,0.009 0,0.0138 v 92.36769 c 0,0.90778 0.72408,1.63186 1.63186,1.63186 h 27.30379 c 8.27871,0.11941 16.19154,-3.44435 21.5081,-9.78809 l -0.0597,0.0612 c 4.28019,-5.66711 6.41875,-12.66268 6.04064,-19.75346"
     id="path4"
     inkscape:connector-curvature="0"
     style="fill:#ff8000;stroke-width:1.53082514"
     inkscape:export-filename="C:\Users\suitedoalex\sites\grubhub-logo-4.png"
     inkscape:export-xdpi="98.144829"
     inkscape:export-ydpi="98.144829" />
  <path
     d="m 618.04952,886.87892 v -65.7272 c -0.0597,-0.78516 -0.72408,-1.45076 -1.50786,-1.45076 h -16.85745 c -0.82665,-0.073 -1.55532,0.53793 -1.62727,1.36458 -0.002,0.008 -0.002,0.0165 -0.003,0.0257 v 65.78767 c 0.12094,2.65614 -0.60468,5.25441 -2.17377,7.36832 -2.74324,3.02017 -7.40919,3.26388 -10.45094,0.54467 -0.21126,-0.15002 -0.39496,-0.33403 -0.54498,-0.54467 -1.5446,-2.11238 -2.31307,-4.69397 -2.17377,-7.30785 v -65.78767 c -0.0597,-0.84563 -0.78531,-1.45076 -1.63186,-1.45076 h -16.79468 c -0.84502,0 -1.5691,0.60513 -1.63033,1.45076 v 65.90876 c -0.54497,7.73143 1.9962,15.52318 7.06935,21.56534 l 0.17911,0.18064 c 11.78123,10.57188 29.72403,10.45094 41.32309,-0.35974 l -0.2434,0.1791 c 5.08387,-6.06053 7.61738,-13.85626 7.06782,-21.7469"
     id="path6"
     inkscape:connector-curvature="0"
     style="fill:#ff8000;stroke-width:1.53082514"
     inkscape:export-filename="C:\Users\suitedoalex\sites\grubhub-logo-4.png"
     inkscape:export-xdpi="98.144829"
     inkscape:export-ydpi="98.144829" />
  <path
     d="m 546.65796,819.70065 c -0.003,0 -0.009,0 -0.0122,0 h -0.0612 -16.37065 c -0.89859,-0.003 -1.62879,0.72117 -1.63185,1.61824 0,0.005 0,0.009 0,0.0138 v 35.76268 h -16.61099 v -35.76268 c 0.005,-0.89782 -0.72102,-1.62818 -1.61808,-1.63231 -0.005,0 -0.009,0 -0.0138,0 h -16.31247 c -0.89859,-0.003 -1.62727,0.72285 -1.63033,1.62068 0,0.005 0,0.008 0,0.0122 v 92.12567 c 0,0.90777 0.72561,1.63185 1.63033,1.63185 h 16.37371 c 0.89706,0.002 1.62573,-0.72408 1.62879,-1.62114 0,-0.003 0,-0.008 0,-0.0107 v -37.03327 h 16.61252 v 37.03327 c 0,0.90777 0.72714,1.63185 1.63186,1.63185 h 16.37217 c 0.89707,0.003 1.62727,-0.72101 1.63033,-1.61961 0,-0.005 0,-0.009 0,-0.0122 v -92.12567 c 0.005,-0.89783 -0.71949,-1.62819 -1.61808,-1.63232 z"
     id="path8"
     inkscape:connector-curvature="0"
     style="fill:#ff8000;stroke-width:1.53082514"
     inkscape:export-filename="C:\Users\suitedoalex\sites\grubhub-logo-4.png"
     inkscape:export-xdpi="98.144829"
     inkscape:export-ydpi="98.144829" />
  <path
     d="m 460.8598,885.73126 v 0.0605 c 0.12094,2.71676 -0.78378,5.37549 -2.41564,7.54911 l 0.0597,0.12109 0.0612,-0.0605 c -1.50327,1.78571 -3.77655,2.73084 -6.10187,2.53765 h -9.30283 v -19.93486 h 9.36253 c 2.32532,-0.19319 4.60013,0.7527 6.10187,2.53765 l -0.0597,-0.0605 c 1.61502,2.06003 2.42942,4.63503 2.2947,7.24983 z M 443.1604,839.0933 v -0.003 h 8.21594 c 2.05437,-0.14099 4.0674,0.6333 5.49719,2.11651 l 0.11941,0.12109 c 1.42826,1.92823 2.11254,4.30514 1.93649,6.6969 0.22656,2.52097 -0.55722,5.09765 -2.0559,7.19672 v -0.0605 c -1.35478,1.57093 -3.36628,2.41993 -5.43749,2.29563 h -8.27564 z m 37.03372,46.51687 v 0.24218 c 0,-7.79465 -3.50252,-15.10496 -9.54469,-19.99625 h -0.002 l 0.12093,-0.12277 c 4.97059,-4.77602 7.78119,-11.3676 7.79037,-18.25846 0.0735,-6.98041 -2.41564,-13.74788 -7.00658,-19.01392 v 0.0606 c -5.12827,-5.7262 -12.48848,-8.94446 -20.17475,-8.82092 h -26.1021 c -0.89706,-0.003 -1.62726,0.72133 -1.63186,1.61824 0,0.005 0,0.009 0,0.0138 v 92.12567 c 0,0.90778 0.72561,1.63186 1.63186,1.63186 h 27.43239 c 8.27564,0.11941 16.18847,-3.44435 21.50656,-9.78809 l -0.0612,0.0612 c 4.28019,-5.66711 6.42028,-12.66268 6.04063,-19.75346"
     id="path10"
     inkscape:connector-curvature="0"
     style="fill:#ff8000;stroke-width:1.53082514"
     inkscape:export-filename="C:\Users\suitedoalex\sites\grubhub-logo-4.png"
     inkscape:export-xdpi="98.144829"
     inkscape:export-ydpi="98.144829" />
  <path
     d="m 409.15006,886.87877 v -65.7272 c -0.0674,-0.81823 -0.7501,-1.44923 -1.57216,-1.45076 h -16.73038 c -0.84502,0 -1.57063,0.60513 -1.63186,1.45076 v 65.7246 c 0.12093,2.71935 -0.66438,5.37962 -2.29471,7.49124 -2.75089,2.96123 -7.37092,3.18504 -10.39124,0.48497 -0.21126,-0.15002 -0.39495,-0.33418 -0.54498,-0.54467 -1.5446,-2.11238 -2.31307,-4.69397 -2.17377,-7.30801 v -65.84813 c -0.005,-0.80751 -0.66284,-1.45827 -1.46959,-1.4549 -0.0337,0 -0.0658,0.002 -0.10103,0.005 h -16.79622 c -0.82664,-0.0738 -1.55532,0.53641 -1.62879,1.36198 -0.002,0.009 -0.002,0.0184 -0.003,0.0283 v 65.78767 c -0.54191,7.90809 1.99161,15.6957 7.05864,21.73481 5.413,5.41299 12.83597,8.33228 20.49009,8.04754 h 0.24187 c 7.6526,0.28474 15.07557,-2.63455 20.48857,-8.04754 5.07621,-6.05901 7.60667,-13.84907 7.05863,-21.73481"
     id="path12"
     inkscape:connector-curvature="0"
     style="fill:#ff8000;stroke-width:1.53082514"
     inkscape:export-filename="C:\Users\suitedoalex\sites\grubhub-logo-4.png"
     inkscape:export-xdpi="98.144829"
     inkscape:export-ydpi="98.144829" />
  <path
     d="m 320.10196,857.0335 h 0.0612 l 0.003,0.002 c -1.68238,1.79902 -4.0674,2.76972 -6.52591,2.65705 h -8.03377 V 839.0907 h 7.97254 c 2.46003,-0.11114 4.84353,0.86139 6.52284,2.66118 v -0.0606 c 1.70228,2.04534 2.58404,4.64927 2.47841,7.30801 v 0.12093 c 0.18064,2.90092 -0.66438,5.67982 -2.47841,7.91314 z m 10.15091,16.97777 v -0.002 l 0.0612,-0.0589 c 1.69003,-1.1498 3.20095,-2.53765 4.58941,-4.04812 l -0.0597,0.12109 c 5.00121,-5.79157 7.63269,-13.25618 7.37092,-20.90326 v -0.17987 c 0.13012,-7.55156 -2.61312,-14.87197 -7.67402,-20.47953 l 0.3031,0.36142 c -5.02417,-5.67706 -12.17465,-9.02314 -19.75377,-9.24281 h -27.48749 c -0.89707,-0.003 -1.62727,0.72132 -1.63186,1.61823 0,0.005 0,0.009 0,0.0138 v 92.24676 c 0,0.90778 0.72408,1.63186 1.63186,1.63186 h 16.37064 c 0.89859,0.003 1.6288,-0.72102 1.63339,-1.61962 0,-0.005 0,-0.009 0,-0.0122 v -34.13006 h 6.04064 l 10.33,34.7975 c 0.17911,0.66284 0.84502,1.14811 1.5691,1.14811 h 17.39936 c 0.52201,-0.005 1.0134,-0.25105 1.32875,-0.6659 0.24188,-0.45313 0.24188,-0.99657 0,-1.44816 l -12.02156,-39.14887"
     id="path14"
     inkscape:connector-curvature="0"
     style="fill:#ff8000;stroke-width:1.53082514"
     inkscape:export-filename="C:\Users\suitedoalex\sites\grubhub-logo-4.png"
     inkscape:export-xdpi="98.144829"
     inkscape:export-ydpi="98.144829" />
  <path
     d="m 266.27968,826.22778 c -5.43443,-5.42356 -12.86964,-8.35493 -20.54214,-8.09883 l 0.002,0.002 h -0.12093 c -7.67556,-0.28519 -15.12149,2.64803 -20.54061,8.09302 l 0.18216,-0.24034 c -5.19409,5.99303 -7.85772,13.76931 -7.43062,21.68812 v 39.26704 c -0.54191,7.90824 1.9916,15.6957 7.05863,21.73481 5.413,5.41299 12.83597,8.33228 20.48857,8.04754 h 0.3031 c 7.67556,0.28474 15.12302,-2.65138 20.54061,-8.09653 5.08234,-6.06054 7.61586,-13.85565 7.06782,-21.74629 v -21.44778 c -0.0459,-0.90625 -0.78684,-1.61992 -1.69309,-1.63247 h -24.16561 c -0.91696,0.009 -1.67778,0.71719 -1.74973,1.63247 v 16.06739 c 0.0597,0.96656 0.78378,1.69279 1.74973,1.69279 h 6.64685 v 3.68515 c 0.13624,2.76391 -0.67357,5.4923 -2.29624,7.73404 l 0.0628,-0.0631 c -1.45122,1.81387 -3.68623,2.84029 -5.98246,2.65873 h -0.12094 c -2.29471,0.17911 -4.52971,-0.72377 -5.98093,-2.53765 -1.69003,-2.18862 -2.54576,-4.90782 -2.41564,-7.67111 v -39.02487 c -0.11635,-2.83524 0.78225,-5.6192 2.53657,-7.85007 1.45123,-1.81311 3.68623,-2.84029 5.98094,-2.65874 h 0.12093 c 2.29624,-0.1791 4.52818,0.72623 5.98247,2.53765 l 0.12093,0.12109 c 1.5247,2.29807 2.22735,5.04376 1.99161,7.79205 v 3.62454 c 0.0612,0.84716 0.78531,1.45076 1.63032,1.45076 h 16.37218 c 0.84501,0 1.56909,-0.60513 1.63033,-1.45076 v -3.68516 c 0.42404,-7.91299 -2.23501,-15.64702 -7.4888,-21.6252 h 0.0597"
     id="path16"
     inkscape:connector-curvature="0"
     style="fill:#ff8000;stroke-width:1.53082514"
     inkscape:export-filename="C:\Users\suitedoalex\sites\grubhub-logo-4.png"
     inkscape:export-xdpi="98.144829"
     inkscape:export-ydpi="98.144829" />
  <path
     d="m 170.38727,804.24345 c -0.36434,-0.45419 -0.64448,-1.01631 -0.69653,-1.60997 v 9.2e-4 c -1.75432,-19.6812 -4.55726,-32.73424 -4.55726,-32.73424 -0.44088,-2.25338 -2.38656,-3.91065 -4.6182,-4.17671 l -15.71422,-1.90098 c -0.13609,-0.0165 -0.27448,-0.0257 -0.41547,-0.0257 -1.83286,0 -3.31944,1.48643 -3.31944,3.3202 v 5.45923 c -0.002,0.10945 -0.0911,0.19732 -0.20054,0.19732 -0.0497,0 -0.0954,-0.0182 -0.13104,-0.0481 l 9.2e-4,7.6e-4 c -9.41197,-8.47679 -20.00957,-16.70576 -31.74947,-23.95397 -2.23423,-1.49309 -4.88792,-2.35609 -7.77705,-2.35609 v 8.3e-4 h -0.007 v -8.3e-4 c -2.889116,0 -5.543726,0.863 -7.777966,2.35609 -54.249683,33.49288 -84.1106615,87.93943 -85.2631835,90.92974 -0.328378,0.69561 -0.512005,1.47235 -0.512005,2.29303 0,2.51208 1.7238,4.62186 4.0535475,5.21138 l 15.627811,3.00762 c 2.087433,0.57207 3.668929,2.36772 3.905594,4.56308 0.127518,2.75977 3.080633,64.3839 6.790894,80.36878 0.607431,2.30236 2.70956,4.00004 5.202815,4.00004 h 0.117721 c 9.116982,-0.22809 17.468551,-0.37964 26.485877,-0.50058 0,0 0,0 -7.66e-4,0 h -0.02572 l 0.08374,-0.002 c 0.230543,-0.003 0.460932,-0.006 0.693005,-0.009 0.963348,0 1.744375,-0.78991 1.744375,-1.75433 0,-0.0138 0,-0.0291 -9.18e-4,-0.0444 -0.365561,-5.38085 -1.153936,-17.68409 -1.792289,-30.63793 -0.01577,-0.32454 -0.04149,-0.73327 -0.05725,-1.0624 h 9.18e-4 c -0.05894,-1.12668 -0.679839,-2.10794 -1.588537,-2.66057 -4.688918,-2.806 -7.903038,-7.82328 -8.201549,-13.61072 -0.81991,-21.61204 -1.236142,-46.5873 -0.05312,-66.13088 0.0946,-1.6265 1.429332,-2.92985 3.084919,-2.95878 1.735955,-0.0299 3.167737,1.35294 3.198352,3.0889 0.0017,0.083 0,0.16502 -0.0049,0.24631 -0.771077,13.02732 -0.840729,28.42911 -0.558751,43.62515 0.03552,2.05345 1.730138,3.69082 3.784505,3.65515 2.053449,-0.0364 3.689901,-1.73091 3.654386,-3.78527 -0.281978,-15.29892 -0.206508,-30.8002 0.585235,-43.87146 0.09369,-1.6265 1.428413,-2.92985 3.084,-2.95878 1.735956,-0.0299 3.168502,1.35294 3.198353,3.0889 0.0017,0.083 0,0.16502 -0.0049,0.24631 -0.766943,12.95843 -0.839045,28.2673 -0.562884,43.38557 0,0.003 0,0.006 0,0.009 0.04057,2.04763 1.731822,3.67673 3.780372,3.64107 2.044264,-0.0357 3.674134,-1.71529 3.651784,-3.75634 -0.277692,-15.22926 -0.198089,-30.6459 0.588602,-43.65592 0.09461,-1.6265 1.429331,-2.92985 3.084918,-2.95878 1.73596,-0.0299 3.16774,1.35294 3.19835,3.0889 0.002,0.083 0,0.16502 -0.005,0.24631 -1.12408,18.99876 -0.75684,43.04726 0.0167,64.1428 0,0.0138 0.007,0.184 0.007,0.19732 0.003,0.107 0.006,0.21386 0.008,0.32086 0,7.7e-4 0,7.7e-4 0,0.002 7.7e-4,0.0687 7.7e-4,0.13839 7.7e-4,0.20804 0,5.76922 -2.89494,10.86274 -7.311222,13.90663 -0.787609,0.5465 -1.320643,1.42367 -1.390294,2.44473 0,0 -0.387912,3.23922 1.0454,18.93783 0.66744,6.85351 1.177205,11.60213 1.412645,13.74988 0.09369,0.81439 0.784396,1.44509 1.623288,1.44509 0.488332,-0.002 0.977434,-0.003 1.477394,-0.005 h -0.0208 c 3.01022,-0.0122 6.1158,-0.0184 9.342475,-0.0199 h 0.60268 0.60345 c 4.07797,0.002 7.96366,0.0107 11.70836,0.0291 l 8.86486,0.0781 c 0.003,0 0.007,0 0.01,0 0.84394,0 1.5345,-0.63836 1.65635,-1.46194 2.05269,-18.81231 2.5352,-29.37653 2.5352,-29.37653 0,-0.95065 -0.72622,-1.66401 -1.67962,-1.81097 l -10.76828,-1.4849 c -1.70274,-0.30004 -2.71416,-1.34866 -3.07819,-2.63914 -0.22288,-0.78225 -0.13501,-1.66248 -0.13501,-1.66248 4.3656,-62.70336 25.03909,-83.83456 25.03909,-83.83456 0.61019,-0.62167 1.00315,-0.8663 1.00315,-0.8663 0.54559,-0.39633 1.21792,-0.63085 1.94415,-0.63085 1.40177,0 2.60056,0.87379 3.084,2.10488 0,0 0.16992,0.4369 0.26682,1.5071 1.78418,19.71029 0.9136,53.25036 -0.19059,79.41615 -0.93686,22.2089 -2.07013,39.64041 -2.07013,39.64041 -7.7e-4,0.0122 -7.7e-4,0.0245 -7.7e-4,0.0352 0,0.71336 0.57865,1.29201 1.29248,1.29201 v 0.002 c 5.86857,0.098 11.64789,0.21738 17.77272,0.36893 h 0.11773 c 2.49325,0 4.5966,-1.69768 5.20281,-4.00004 3.71072,-15.98488 6.66368,-77.60901 6.79227,-80.36878 0.23575,-2.19536 1.81709,-3.99102 3.90514,-4.56309 l 15.62666,-3.00761 c 2.32992,-0.58952 4.05362,-2.6993 4.05362,-5.21139 0,-0.82067 -0.18369,-1.59741 -0.51129,-2.29302 -0.5909,-1.53373 -8.73948,-16.61374 -23.8625,-35.4585"
     id="path18"
     inkscape:connector-curvature="0"
     style="fill:#ff8000;stroke-width:1.53082514"
     inkscape:export-filename="C:\Users\suitedoalex\sites\grubhub-logo-4.png"
     inkscape:export-xdpi="98.144829"
     inkscape:export-ydpi="98.144829" />
  <path
     d="m 604.61263,460.16925 c 0.42546,0 0.70071,-0.27534 0.70071,-0.73461 0,-0.44811 -0.27506,-0.70021 -0.70071,-0.70021 h -0.68735 v 1.43482 z m -1.50323,-2.0546 h 1.66505 c 0.81423,0 1.3648,0.51685 1.3648,1.31999 0,0.66601 -0.43549,1.05628 -0.79086,1.1475 v 0.025 c 0,0 0.0455,0.046 0.14835,0.2404 l 0.82751,1.59647 h -0.89592 l -0.80414,-1.67608 h -0.69908 v 1.67608 h -0.81584 z m 1.39983,5.59109 c 1.85021,0 3.27336,-1.49268 3.27336,-3.40983 0,-1.91735 -1.42315,-3.41 -3.27336,-3.41 -1.82357,0 -3.2367,1.49265 -3.2367,3.41 0,1.91715 1.41313,3.40983 3.2367,3.40983 z m 0,-7.60055 c 2.28565,0 4.11088,1.86045 4.11088,4.19072 0,2.33004 -1.82523,4.19043 -4.11088,4.19043 -2.26067,0 -4.0742,-1.86039 -4.0742,-4.19043 0,-2.33027 1.81353,-4.19072 4.0742,-4.19072 z"
     id="path2-5"
     inkscape:connector-curvature="0"
     style="fill:#ff8000;fill-opacity:1;stroke-width:1.66838264"
     inkscape:export-filename="C:\Users\suitedoalex\sites\grubhub-logo-5.png"
     inkscape:export-xdpi="129.92029"
     inkscape:export-ydpi="129.92029" />
  <path
     d="m 584.06985,528.88928 v 0.0657 c 0.13171,2.96091 -0.85588,5.8585 -2.63436,8.22742 l 0.0663,0.13199 0.0649,-0.0657 c -1.63668,1.94615 -4.1159,2.97623 -6.65017,2.76569 H 564.7778 v -21.7261 h 10.20549 c 2.53258,-0.21074 5.0118,0.82033 6.65014,2.76568 l -0.0665,-0.0654 c 1.76018,2.24515 2.64939,5.05156 2.50257,7.90129 z m -19.29149,-50.82879 h 8.95418 c 2.23899,-0.15361 4.43126,0.68941 5.98952,2.30404 l 0.13198,0.13199 c 1.5566,2.10251 2.30238,4.69201 2.10884,7.29864 0.24678,2.74752 -0.60395,5.55574 -2.24065,7.84342 v -0.0654 c -1.47486,1.71207 -3.66713,2.6365 -5.92445,2.50191 h -9.01925 z m 40.22803,50.69683 v 0.13199 c 0,-8.42901 -3.81893,-16.46228 -10.40236,-21.72885 l 0.13199,0.0654 0.12838,-0.13198 c 5.4306,-5.21502 8.49877,-12.41975 8.49544,-19.94801 v 0.39307 c 0.27368,-7.86424 -2.45756,-15.53799 -7.63789,-21.4624 l 0.13198,0.19493 c -5.58909,-6.23977 -13.61233,-9.74718 -21.98929,-9.61073 h -28.57439 c -0.97769,-0.002 -1.77351,0.78595 -1.77851,1.76362 0,0.006 0,0.008 0,0.0139 V 559.106 c 0,0.98931 0.78915,1.77845 1.77851,1.77845 h 29.75727 c 9.02264,0.13005 17.64649,-3.75383 23.44075,-10.66763 l -0.0649,0.0666 c 4.66478,-6.1763 6.99555,-13.80047 6.58346,-21.52843"
     id="path4-4"
     inkscape:connector-curvature="0"
     style="fill:#ff8000;fill-opacity:1;stroke-width:1.66838264"
     inkscape:export-filename="C:\Users\suitedoalex\sites\grubhub-logo-5.png"
     inkscape:export-xdpi="129.92029"
     inkscape:export-ydpi="129.92029" />
  <path
     d="m 527.64182,530.14004 v -71.63329 c -0.0649,-0.85574 -0.78914,-1.58114 -1.64336,-1.58114 h -18.37225 c -0.90089,-0.0796 -1.69507,0.58623 -1.77349,1.48717 -0.002,0.006 -0.002,0.0166 -0.002,0.028 V 530.14 c 0.13199,2.89484 -0.65901,5.72658 -2.36909,8.03042 -2.98972,3.29157 -8.07495,3.55718 -11.39003,0.59363 -0.23042,-0.16332 -0.43048,-0.36401 -0.59394,-0.59363 -1.6834,-2.30221 -2.52095,-5.11575 -2.36912,-7.96451 v -71.699 c -0.0649,-0.92166 -0.85588,-1.58111 -1.77848,-1.58111 h -18.30387 c -0.9209,0 -1.71004,0.65945 -1.77681,1.58111 v 71.83121 c -0.59391,8.42613 2.17557,16.91808 7.70458,23.50319 l 0.19493,0.19687 c 12.83985,11.52183 32.39501,11.39007 45.03636,-0.39213 l -0.26536,0.19493 c 5.54071,-6.60516 8.30185,-15.10139 7.7029,-23.70109"
     id="path6-4"
     inkscape:connector-curvature="0"
     style="fill:#ff8000;fill-opacity:1;stroke-width:1.66838264"
     inkscape:export-filename="C:\Users\suitedoalex\sites\grubhub-logo-5.png"
     inkscape:export-xdpi="129.92029"
     inkscape:export-ydpi="129.92029" />
  <path
     d="m 449.83515,456.92525 c -0.002,0 -0.008,0 -0.0139,0 h -0.0666 -17.84164 c -0.97938,-0.002 -1.77518,0.78595 -1.77853,1.76365 0,0.006 0,0.008 0,0.0139 v 38.97628 h -18.10359 v -38.97617 c 0.006,-0.97849 -0.78585,-1.77448 -1.76354,-1.779 -0.006,0 -0.008,0 -0.0139,0 h -17.77817 c -0.97935,-0.002 -1.77351,0.78778 -1.77684,1.7663 0,0.006 0,0.006 0,0.0139 v 100.4039 c 0,0.98931 0.79083,1.77854 1.77684,1.77854 h 17.84497 c 0.97772,0.002 1.77183,-0.78923 1.77516,-1.76686 0,-0.002 0,-0.006 0,-0.0139 v -40.36101 h 18.10531 v 40.36104 c 0,0.98931 0.79252,1.77845 1.7785,1.77845 h 17.84339 c 0.97764,0.002 1.77341,-0.78576 1.77682,-1.76508 0,-0.006 0,-0.008 0,-0.0139 V 458.70162 c 0.006,-0.97852 -0.78418,-1.77445 -1.76348,-1.779 z"
     id="path8-3"
     inkscape:connector-curvature="0"
     style="fill:#ff8000;fill-opacity:1;stroke-width:1.66838264"
     inkscape:export-filename="C:\Users\suitedoalex\sites\grubhub-logo-5.png"
     inkscape:export-xdpi="129.92029"
     inkscape:export-ydpi="129.92029" />
  <path
     d="m 356.32725,528.88928 v 0.0657 c 0.1317,2.96091 -0.8542,5.8585 -2.63268,8.22742 l 0.0649,0.13199 0.0668,-0.0657 c -1.63834,1.94615 -4.1159,2.97623 -6.65014,2.76569 h -10.13875 v -21.7261 h 10.2038 c 2.53427,-0.21074 5.01352,0.82033 6.65017,2.76568 l -0.0652,-0.0654 c 1.76015,2.24515 2.64775,5.05156 2.50091,7.90129 z m -19.2898,-50.82879 v -0.002 h 8.9542 c 2.23896,-0.15389 4.43289,0.69018 5.99119,2.30673 l 0.13004,0.13199 c 1.55657,2.10151 2.30237,4.69204 2.11052,7.2987 0.24678,2.74746 -0.60735,5.55571 -2.24065,7.84342 v -0.066 c -1.47652,1.71213 -3.66881,2.63742 -5.92613,2.50194 h -9.01926 z m 40.36148,50.69683 v 0.26398 c 0,-8.49503 -3.81724,-16.46226 -10.40238,-21.79307 h -0.002 l 0.13171,-0.13365 c 5.41723,-5.20523 8.48036,-12.38908 8.49039,-19.89915 0.0801,-7.60762 -2.6327,-14.98324 -7.63617,-20.72245 v 0.066 c -5.5891,-6.24079 -13.61065,-9.7482 -21.98764,-9.61361 h -28.44752 c -0.97767,-0.002 -1.77352,0.78618 -1.77851,1.76368 0,0.006 0,0.008 0,0.0139 v 100.40396 c 0,0.98937 0.79083,1.77848 1.77851,1.77848 h 29.8974 c 9.01931,0.13005 17.64314,-3.75383 23.43914,-10.66761 l -0.0666,0.0666 c 4.66484,-6.17638 6.99722,-13.80055 6.58343,-21.52845"
     id="path10-2"
     inkscape:connector-curvature="0"
     style="fill:#ff8000;fill-opacity:1;stroke-width:1.66838264"
     inkscape:export-filename="C:\Users\suitedoalex\sites\grubhub-logo-5.png"
     inkscape:export-xdpi="129.92029"
     inkscape:export-ydpi="129.92029" />
  <path
     d="m 299.97094,530.13985 v -71.63332 c -0.0735,-0.89174 -0.8175,-1.57945 -1.7134,-1.58111 H 280.0238 c -0.92094,0 -1.71177,0.65951 -1.77854,1.58111 v 71.63049 c 0.13199,2.96374 -0.72404,5.86302 -2.50085,8.16445 -2.99813,3.2273 -8.03327,3.47123 -11.32502,0.5285 -0.23014,-0.16332 -0.43042,-0.36415 -0.5939,-0.59357 -1.6834,-2.30221 -2.52096,-5.11578 -2.36915,-7.96471 v -71.76516 c -0.006,-0.88006 -0.72243,-1.58932 -1.6016,-1.5856 -0.0366,0 -0.0715,0.002 -0.11008,0.006 h -18.30551 c -0.90091,-0.0804 -1.69502,0.58457 -1.77512,1.48437 -0.002,0.008 -0.002,0.0194 -0.002,0.0305 v 71.69923 c -0.59061,8.61869 2.17058,17.1061 7.69291,23.68789 5.8994,5.89937 13.98944,9.081 22.33132,8.77067 h 0.2637 c 8.34022,0.31033 16.43022,-2.8713 22.32963,-8.77067 5.53233,-6.6035 8.29017,-15.0936 7.69291,-23.68789"
     id="path12-9"
     inkscape:connector-curvature="0"
     style="fill:#ff8000;fill-opacity:1;stroke-width:1.66838264"
     inkscape:export-filename="C:\Users\suitedoalex\sites\grubhub-logo-5.png"
     inkscape:export-xdpi="129.92029"
     inkscape:export-ydpi="129.92029" />
  <path
     d="m 202.92109,497.61271 h 0.0665 v 0.002 c -1.83357,1.96065 -4.43292,3.01859 -7.11236,2.89578 h -8.75568 v -22.45255 h 8.68899 c 2.68106,-0.12145 5.27876,0.93874 7.10893,2.90022 v -0.066 c 1.85526,2.22915 2.81623,5.06706 2.70113,7.96473 v 0.13171 c 0.19687,3.16156 -0.72406,6.19018 -2.70113,8.62418 z m 11.06303,18.5034 v -0.002 l 0.0666,-0.064 c 1.8419,-1.25315 3.48858,-2.76569 5.00179,-4.41188 l -0.0649,0.13199 c 5.45067,-6.31197 8.31862,-14.44739 8.03335,-22.78157 v -0.19548 c 0.14169,-8.23017 -2.84792,-16.20835 -8.36368,-22.31979 l 0.33033,0.39391 c -5.47561,-6.18722 -13.26862,-9.83397 -21.52882,-10.0734 h -29.95727 c -0.97797,-0.002 -1.77376,0.78615 -1.77875,1.76367 0,0.006 0,0.008 0,0.0139 v 100.53592 c 0,0.98934 0.78941,1.77851 1.77875,1.77851 H 185.343 c 0.97936,0.002 1.77518,-0.78585 1.7802,-1.76517 0,-0.006 0,-0.008 0,-0.0139 v -37.19688 h 6.5834 l 11.2583,37.92433 c 0.19493,0.7224 0.92088,1.25128 1.71004,1.25128 h 18.96292 c 0.56889,-0.006 1.10446,-0.27367 1.44815,-0.72572 0.2637,-0.4939 0.2637,-1.08614 0,-1.57834 l -13.10186,-42.66672"
     id="path14-3"
     inkscape:connector-curvature="0"
     style="fill:#ff8000;fill-opacity:1;stroke-width:1.66838264"
     inkscape:export-filename="C:\Users\suitedoalex\sites\grubhub-logo-5.png"
     inkscape:export-xdpi="129.92029"
     inkscape:export-ydpi="129.92029" />
  <path
     d="m 144.26202,464.03887 c -5.92244,-5.91088 -14.02598,-9.10566 -22.38766,-8.82652 l 0.002,0.002 h -0.13309 c -8.36557,-0.3108 -16.4802,2.886 -22.386284,8.82026 l 0.19964,-0.26176 c -5.66041,6.53155 -8.56382,15.00659 -8.09827,23.63696 v 42.79551 c -0.59061,8.61886 2.17056,17.10607 7.69316,23.68786 5.899164,5.89938 13.989384,9.08101 22.329444,8.77071 h 0.33024 c 8.36557,0.3103 16.48213,-2.88963 22.38656,-8.82408 5.53896,-6.60514 8.30012,-15.10069 7.70286,-23.7004 v -23.37503 c -0.0499,-0.9877 -0.85791,-1.76548 -1.8453,-1.77917 h -26.33698 c -0.9996,0.008 -1.82867,0.78165 -1.90714,1.77917 v 17.51118 c 0.0638,1.05342 0.8543,1.84489 1.90714,1.84489 h 7.24396 v 4.01627 c 0.15251,3.0123 -0.73368,5.98589 -2.50273,8.42904 l 0.0665,-0.069 c -1.58133,1.97684 -4.01697,3.09548 -6.5197,2.89761 h -0.1331 c -2.5008,0.19493 -4.93699,-0.78881 -6.51832,-2.76571 -1.84225,-2.38526 -2.77475,-5.34881 -2.63251,-8.36035 v -42.53152 c -0.12754,-3.09005 0.85237,-6.12414 2.7645,-8.55548 1.58161,-1.97604 4.01724,-3.09551 6.51859,-2.89767 h 0.13033 c 2.50273,-0.19492 4.93504,0.7915 6.51998,2.76572 l 0.1331,0.13226 c 1.66202,2.50457 2.42759,5.49698 2.17083,8.4922 v 3.95028 c 0.0666,0.92324 0.85596,1.58109 1.77681,1.58109 h 17.84331 c 0.92085,0 1.70999,-0.65952 1.77682,-1.58109 v -4.01636 c 0.46222,-8.62402 -2.43592,-17.053 -8.16177,-23.56838 h 0.0638"
     id="path16-0"
     inkscape:connector-curvature="0"
     style="fill:#ff8000;fill-opacity:1;stroke-width:1.66838264"
     inkscape:export-filename="C:\Users\suitedoalex\sites\grubhub-logo-5.png"
     inkscape:export-xdpi="129.92029"
     inkscape:export-ydpi="129.92029" />
  <path
     d="m 450.82202,221.60178 c -0.53105,-0.66203 -0.93937,-1.48134 -1.01523,-2.34662 v 0.001 c -2.55701,-28.68629 -6.64244,-47.7117 -6.64244,-47.7117 -0.6426,-3.28439 -3.47849,-5.69993 -6.73119,-6.08771 l -22.90423,-2.77043 c -0.19854,-0.0222 -0.40007,-0.0377 -0.60556,-0.0377 -2.67146,0 -4.83825,2.16656 -4.83825,4.83936 v 7.95707 c -0.002,0.15944 -0.13392,0.28763 -0.29242,0.28763 -0.0713,0 -0.13864,-0.025 -0.1916,-0.0702 l 0.001,0.001 c -13.71833,-12.3553 -29.16482,-24.34937 -46.27625,-34.91402 -3.25655,-2.17621 -7.1244,-3.4341 -11.33541,-3.4341 v 0.001 0 -0.001 c -4.21104,0 -8.08024,1.25789 -11.33677,3.4341 -79.07138,48.81739 -122.59501,128.17573 -124.27491,132.53422 -0.47859,1.01391 -0.74636,2.14602 -0.74636,3.34221 0,3.66149 2.51261,6.73657 5.90836,7.59586 l 22.77813,4.38367 c 3.04255,0.83387 5.34764,3.4511 5.69255,6.65095 0.18522,4.02248 4.49021,93.84247 9.89804,117.14116 0.88539,3.35577 3.94937,5.83025 7.58339,5.83025 h 0.17163 c 13.28842,-0.33246 25.46125,-0.55331 38.60439,-0.72961 0,0 0,0 -10e-4,0 h -0.0383 l 0.12283,-0.002 c 0.33604,-0.003 0.67185,-0.008 1.01008,-0.0111 1.40415,0 2.5425,-1.15133 2.5425,-2.557 0,-0.0194 0,-0.0421 -10e-4,-0.0646 -0.5328,-7.84284 -1.68193,-25.7754 -2.61232,-44.65621 -0.0222,-0.47301 -0.0605,-1.06875 -0.0826,-1.54848 h 0.001 c -0.0848,-1.64219 -0.99092,-3.07243 -2.31538,-3.87791 -6.83431,-4.08989 -11.51905,-11.40279 -11.95411,-19.83823 -1.19511,-31.50056 -1.80177,-67.90314 -0.0782,-96.38879 0.13864,-2.37073 2.08332,-4.27038 4.49644,-4.31256 2.53019,-0.0435 4.61709,1.97197 4.66173,4.50222 0,0.12089 0,0.24068 0,0.35899 -1.12384,18.98792 -1.22541,41.43673 -0.81443,63.58568 0.0516,2.99294 2.52176,5.37953 5.51612,5.32754 2.99297,-0.0535 5.3782,-2.52287 5.3264,-5.5172 -0.41099,-22.29888 -0.30113,-44.89273 0.85303,-63.94467 0.13614,-2.37073 2.08202,-4.27038 4.49505,-4.31256 2.53025,-0.0435 4.61826,1.97197 4.66173,4.50222 0,0.12089 0,0.24068 0,0.35899 -1.11783,18.88752 -1.22291,41.2009 -0.82039,63.2365 0,0.003 0,0.008 0,0.0111 0.0605,2.98454 2.52423,5.35898 5.51002,5.30705 2.97963,-0.0521 5.35529,-2.5001 5.32271,-5.47508 -0.4048,-22.19734 -0.2889,-44.66777 0.85788,-63.63046 0.13864,-2.37075 2.08333,-4.2704 4.49642,-4.31258 2.53024,-0.0433 4.61711,1.972 4.66176,4.50224 0,0.12117 0,0.2404 0,0.35897 -1.63843,27.6916 -1.10314,62.74338 0.0249,93.49109 0,0.0194 0,0.26814 0,0.2876 0,0.15583 0,0.3118 0,0.46766 0,0.001 0,0.001 0,0.002 10e-4,0.1001 10e-4,0.20186 10e-4,0.3034 0,8.40891 -4.21955,15.83291 -10.65644,20.26957 -1.14802,0.79652 -1.92491,2.07503 -2.02642,3.56326 0,0 -0.56543,4.72132 1.52371,27.60279 0.97284,9.9893 1.71585,16.91059 2.05901,20.04106 0.13614,1.18704 1.14328,2.10631 2.36604,2.10631 0.71172,-0.002 1.42461,-0.003 2.15333,-0.006 h -0.0322 c 4.38753,-0.0194 8.91406,-0.025 13.6171,-0.0291 h 0.87843 0.87956 c 5.94382,0.002 11.6074,0.0166 17.06545,0.0421 l 12.92096,0.11396 c 0,0 0,0 0.0222,0 1.23008,0 2.23658,-0.93044 2.4142,-2.13088 2.99187,-27.41978 3.69513,-42.81761 3.69513,-42.81761 0,-1.38563 -1.05846,-2.42538 -2.44811,-2.63958 l -15.69527,-2.16431 c -2.4818,-0.43733 -3.95602,-1.96573 -4.48657,-3.84664 -0.32486,-1.14018 -0.19604,-2.42313 -0.19604,-2.42313 6.36308,-91.39302 36.49564,-122.19275 36.49564,-122.19275 0.88938,-0.90607 1.4621,-1.26266 1.4621,-1.26266 0.79527,-0.57766 1.77524,-0.91949 2.8337,-0.91949 2.04318,0 3.79046,1.27361 4.49512,3.06795 0,0 0.24733,0.6368 0.38888,2.1967 2.60054,28.72864 1.33159,77.61485 -0.27767,115.7526 -1.36549,32.37053 -3.01731,57.77773 -3.01731,57.77773 -10e-4,0.0194 -10e-4,0.0358 -10e-4,0.0516 0,1.03978 0.84337,1.88315 1.88384,1.88315 v 0.002 c 8.55368,0.14252 16.97731,0.31693 25.90453,0.5377 h 0.17164 c 3.63399,0 6.69974,-2.47448 7.58333,-5.83025 5.40856,-23.29869 9.71265,-113.11868 9.90001,-117.14119 0.34366,-3.19982 2.6485,-5.81702 5.69197,-6.65089 l 22.77658,-4.3837 c 3.39591,-0.85927 5.90835,-3.9344 5.90835,-7.59586 0,-1.19616 -0.26785,-2.3283 -0.74524,-3.34218 -0.86132,-2.2355 -12.73823,-24.21528 -34.78071,-51.68237"
     id="path18-9"
     inkscape:connector-curvature="0"
     style="fill:#ff8000;fill-opacity:1;stroke-width:2.23124766"
     inkscape:export-filename="C:\Users\suitedoalex\sites\grubhub-logo-5.png"
     inkscape:export-xdpi="129.92029"
     inkscape:export-ydpi="129.92029" />
</svg>
